<svg xmlns="http://www.w3.org/2000/svg" xmlns:xlink="http://www.w3.org/1999/xlink" version="1.1" id="Your_Icon" x="0px" y="0px" width="100px" height="100px" viewBox="0 0 100 100" enable-background="new 0 0 100 100" xml:space="preserve">
<path d="M28.227,28.226c-12.302,12.301-12.303,32.247,0,44.547c12.301,12.303,32.246,12.302,44.547,0  c12.302-12.301,12.303-32.246,0-44.547C60.473,15.924,40.527,15.925,28.227,28.226z M34.59,66.41  c-7.696-7.697-8.65-19.583-2.863-28.319l31.182,31.182C54.174,75.061,42.287,74.107,34.59,66.41z M69.273,62.908L38.092,31.727  c8.735-5.788,20.621-4.834,28.318,2.863S75.061,54.174,69.273,62.908z"/>
</svg>